<?xml version="1.0" encoding="iso-8859-1"?>
<!-- Uploaded to: SVG Repo, www.svgrepo.com, Generator: SVG Repo Mixer Tools -->
<svg height="800px" width="800px" version="1.1" id="Layer_1" xmlns="http://www.w3.org/2000/svg" xmlns:xlink="http://www.w3.org/1999/xlink" 
	 viewBox="0 0 512 512" xml:space="preserve">
<path style="fill:#E49429;" d="M175.167,282.032c-4.047-4.012-9.33-6.013-14.614-6.013l-0.003-40.043
	c5.281,0,10.565-1.999,14.613-6.013c8.138-8.07,8.193-21.209,0.122-29.349c-13.459-13.574-31.551-25.295-52.323-33.902
	c-23.404-9.696-47.66-14.224-68.296-12.757c-25.735,1.829-43.986,12.684-51.394,30.57c-9.402,22.701,1.876,49.342,28.534,71.473
	C5.147,278.132-6.131,304.773,3.271,327.473c7.407,17.885,25.66,28.741,51.396,30.572c2.546,0.181,5.144,0.268,7.791,0.268
	c18.815,0,39.987-4.527,60.504-13.027c20.772-8.603,38.866-20.327,52.329-33.905C183.362,303.244,183.306,290.104,175.167,282.032z"
	/>
<path style="fill:#B77220;" d="M480.193,256.004c26.659-22.131,37.938-48.775,28.535-71.476c-7.407-17.883-25.66-28.74-51.395-30.57
	c-20.635-1.468-44.89,3.064-68.298,12.757c-20.771,8.607-38.867,20.329-52.329,33.907c-8.07,8.139-8.015,21.28,0.125,29.349
	c4.048,4.015,9.331,6.016,14.614,6.016l0.004,40.042c-5.281,0-10.567,2.001-14.613,6.014c-8.139,8.071-8.193,21.209-0.122,29.347
	c13.462,13.577,31.557,25.299,52.325,33.9c20.518,8.499,41.686,13.03,60.5,13.03c2.647,0,5.249-0.091,7.793-0.27
	c25.736-1.829,43.988-12.687,51.395-30.573C518.13,304.779,506.853,278.135,480.193,256.004z"/>
<path style="fill:#F2D6A8;" d="M344.047,167.953c-23.517-23.518-54.786-36.47-88.045-36.47c-33.261,0-64.532,12.953-88.05,36.472
	c-23.518,23.517-36.47,54.786-36.47,88.045s12.951,64.529,36.47,88.046c23.518,23.52,54.789,36.471,88.05,36.471
	c33.258,0,64.527-12.951,88.046-36.468C392.596,295.497,392.594,216.5,344.047,167.953z"/>
<path style="fill:#EDC07B;" d="M344.047,167.953c-23.517-23.518-54.786-36.47-88.045-36.47c-0.011,0-0.022,0-0.033,0v249.034
	c0.011,0,0.022,0,0.033,0c33.258,0,64.527-12.951,88.046-36.468C392.596,295.497,392.594,216.5,344.047,167.953z"/>
<path style="fill:#E49429;" d="M344.047,167.953c-8.105-8.105-21.244-8.105-29.349,0L167.953,314.697
	c-8.105,8.102-8.105,21.243,0,29.347c4.052,4.054,9.362,6.081,14.674,6.081c5.311,0,10.623-2.027,14.674-6.081L344.045,197.3
	C352.151,189.195,352.151,176.054,344.047,167.953z"/>
<path style="fill:#B77220;" d="M344.047,167.953c-8.105-8.105-21.244-8.105-29.349,0L255.97,226.68v58.697l88.076-88.078
	C352.151,189.195,352.151,176.054,344.047,167.953z"/>
</svg>